<?xml version="1.0" encoding="utf-8"?>
<!-- Generator: Adobe Illustrator 25.2.1, SVG Export Plug-In . SVG Version: 6.00 Build 0)  -->
<svg version="1.1" id="Layer_1" xmlns="http://www.w3.org/2000/svg" xmlns:xlink="http://www.w3.org/1999/xlink" x="0px" y="0px"
	 viewBox="0 0 1993 501.1" style="enable-background:new 0 0 1993 501.1;" xml:space="preserve">
<style type="text/css">
	.st0{fill:#013A44;}
	.st1{fill:#4B8047;}
	.st2{fill:#225087;}
	.st3{fill:#F1564A;}
	.st4{fill:#D9D9D9;}
	.st5{fill:#19A1A1;}
	.st6{fill:#231F20;}
	.st7{fill:#9BC792;}
	.st8{fill:#4C7F3E;}
	.st9{fill:#2775BB;}
	.st10{fill:none;}
	.st11{fill:#80C88E;}
	.st12{fill:#24282A;}
	.st13{fill:#80C88D;}
	.st14{fill:#A8D04B;}
	.st15{fill:#F99F44;}
	.st16{fill:#AA57A2;}
	.st17{fill:#24272A;}
	.st18{fill-rule:evenodd;clip-rule:evenodd;fill:#FFEA00;}
	.st19{fill:#462DE0;}
	.st20{fill:#0B3C84;}
	.st21{fill:#005CD6;}
	.st22{fill:#FEFEFE;}
	.st23{fill:#4085DF;}
	.st24{fill:#9BEBE4;}
	.st25{fill:#A1F5E3;}
	.st26{fill:#4A9BDD;}
	.st27{fill:#4084DF;}
	.st28{fill:#005CD5;}
	.st29{fill:#1D9BCF;}
	.st30{fill:#23A7CE;}
	.st31{fill:#26AECE;}
	.st32{fill:#1A95D0;}
	.st33{fill:#20A2CF;}
	.st34{fill:#0F7DD2;}
	.st35{fill:#35CDCB;}
	.st36{fill:#39D7CA;}
	.st37{fill:#0D78D3;}
	.st38{fill:#188FD0;}
	.st39{fill:#1283D2;}
	.st40{fill:#0A72D3;}
	.st41{fill:#1487D1;}
	.st42{fill:#1F9FCF;}
	.st43{fill:#0261D5;}
	.st44{fill:#37D2CA;}
	.st45{fill:#28B3CD;}
	.st46{fill:#086DD3;}
	.st47{fill:#0669D4;}
	.st48{fill:#168BD1;}
	.st49{fill:#30C2CC;}
	.st50{fill:#0464D4;}
	.st51{fill:#2AB6CD;}
	.st52{fill:#2CBACD;}
	.st53{fill:#32C7CB;}
	.st54{fill:#2EBECC;}
	.st55{fill:#2EBFCC;}
	.st56{fill:#107ED2;}
	.st57{fill:#1385D1;}
	.st58{fill:#0B73D3;}
	.st59{fill:#20A0CF;}
	.st60{fill:#0D78D2;}
	.st61{fill:#1282D2;}
	.st62{fill:#1D9ACF;}
	.st63{fill:#1B96D0;}
	.st64{fill:#096ED3;}
	.st65{fill:#1991D0;}
	.st66{fill:#0362D5;}
	.st67{fill:#0465D4;}
	.st68{fill:#28B1CD;}
	.st69{fill:#25ABCE;}
	.st70{fill:#2AB7CD;}
	.st71{fill:#2CBBCC;}
	.st72{fill:#1E9DCF;}
	.st73{fill:#2EC0CC;}
	.st74{fill:#34CDCB;}
	.st75{fill:#30C3CC;}
	.st76{fill:#42EBC8;}
	.st77{fill:#0E79D2;}
	.st78{fill:#0C75D3;}
	.st79{fill:#0B70D4;}
	.st80{fill:#39D6CA;}
	.st81{fill:#36D1CA;}
	.st82{fill:#0B74D3;}
	.st83{fill:#43ECC8;}
	.st84{fill:#1180D2;}
	.st85{fill:#1486D1;}
	.st86{fill:#0F7BD2;}
	.st87{fill:#1386D1;}
	.st88{fill:#168AD1;}
	.st89{fill:#40E5C9;}
	.st90{fill:#3DE0C9;}
	.st91{fill:#168CD1;}
	.st92{fill:#1890D0;}
	.st93{fill:#1A94D0;}
	.st94{fill:#0362D4;}
	.st95{fill:#41E7C8;}
	.st96{fill:#0566D4;}
	.st97{fill:#1E9CCF;}
	.st98{fill:#27B1CD;}
	.st99{fill:#23A8CE;}
	.st100{fill:#25ACCE;}
	.st101{fill:#1A93D0;}
	.st102{fill:#1B97D0;}
	.st103{fill:#0D77D3;}
	.st104{fill:#21A3CF;}
	.st105{fill:#2FC2CC;}
	.st106{fill:#1589D1;}
	.st107{fill:#2DBDCC;}
	.st108{fill:#34CCCB;}
	.st109{fill:#37D1CA;}
	.st110{fill:#3CDEC9;}
	.st111{fill:#31C6CB;}
	.st112{fill:#3AD8CA;}
	.st113{fill:#27B0CD;}
	.st114{fill:#3BDCC9;}
	.st115{fill:#24AACE;}
	.st116{fill:#22A5CE;}
	.st117{fill:#1D99D0;}
	.st118{fill:#20A1CF;}
	.st119{fill:#1F9CD0;}
	.st120{fill:#3FE3C9;}
	.st121{fill:#086ED3;}
	.st122{fill:#2DBBCC;}
	.st123{fill:#38D3CA;}
	.st124{fill:#29B5CD;}
	.st125{fill:#26ADCE;}
	.st126{fill:#24A8CE;}
	.st127{fill:#37D3CA;}
	.st128{fill:#1C95D0;}
	.st129{fill:#2FC1CC;}
	.st130{fill:#36CFCB;}
	.st131{fill:#33C9CB;}
	.st132{fill:#2BB7CD;}
	.st133{fill:#2DBCCC;}
	.st134{fill:#23A6CE;}
	.st135{fill:#35C9CC;}
	.st136{fill:#E3262D;}
	.st137{fill:none;stroke:#FFFFFF;stroke-width:1.4384;stroke-miterlimit:10;}
	.st138{fill:none;stroke:#FFFFFF;stroke-width:1.445;stroke-miterlimit:10;}
	.st139{fill:#FFFFFF;stroke:#FFFFFF;stroke-width:1.4384;stroke-miterlimit:10;}
	.st140{fill:#FFFFFF;}
	.st141{fill:#FFFFFF;stroke:#FFFFFF;stroke-width:1.445;stroke-miterlimit:10;}
</style>
<path class="st20" d="M17,159c-9.5-5.6-20.3-29.3-9.7-36.8c4.2-2.5,6.6-1.2,9.5,0.2c29,14.9,57.7,30.4,86.4,45.7
	c52.5,27.9,105.3,55.5,157.5,84c16.1,8.8,29.9,8.3,45.9-0.4c77.7-42,155.8-83.2,233.9-124.4c6-3.2,8.9-5.4,15.9-3.4
	c6.5,7,1.5,31.3-5.1,35.2c-9.1,5.5-16.6,7.7-26,12.7c-16,8.6-32,17.2-48,25.9c-29.1,15-25.2,13.1-36.8,19.7
	c-21,11.7-39.5,21-61.6,34.1c-13.5,7.9-18.1,8.8-32.5,17.9c-11.6,6.9-11.5,20.9-9,32.7c-14,7.7-28.1,15.5-42.1,23.2
	c-7.6,4.2-15,4.8-22.9,0.4c-14.5-8.2-29.3-16-43.9-24c-0.6-12.2,2-28.7-11.9-34.4"/>
<path class="st20" d="M350.7,372.4c-13.4,6.1-14.7,21.6-13.6,34.8c-0.6,0.3-1.1,0.5-1.7,0.8c-53.3,29-53.3,29-106.6-1.1
	c-0.5-11.3,0.2-27.1-13.1-34.2c-9.8-6-24.3-13.4-33.9-19.5c-20.6-12.5-29.8-18.6-51.3-30.3c-4.2-2.7-12.9-6.9-18.2-9.7
	c-9.7-5.1-9.7-5.1-19.7-10.6c-24.3-12.9-49.3-25.3-73.7-37.9c-11.6-6.2-19-26.7-13.2-38.4c2.7-5.7,8.6-0.8,11.9,1
	c45,23.5,89.8,47.5,134.6,71.3c37.1,19.7,74.3,39.2,111.2,59.2c14,7.6,27,7.1,40.9-0.4c80.7-43.2,161.6-85.8,242.2-129.2
	c11.5-6.2,14.3-5.2,14.8,8.3c0.6,15.1-3.7,24.1-18.1,30.7c-22.7,10.5-44.2,23.5-66.2,35.4"/>
<path class="st20" d="M485.5,103.7C423,70.5,360.4,37.6,298.1,4.1c-11.3-6.1-20.6-5-31.5,0.9C205.9,37.7,145,69.8,84.2,102.2
	c-4.3,2.3-8.1,3.3-8.8,8.7c-0.9,7.1,3.9,8.6,8.3,11c61.8,33.2,123.9,65.1,185.8,98.1c4.4,2.4,8.9,4.6,16.7,4.1
	c1.8-0.7,6-1.9,9.8-3.9C359.7,186.4,423.2,152.4,487,119C501.6,111.4,493.4,107.9,485.5,103.7z M392.8,117.4
	c-34.2,18.2-68.5,36.4-102.8,54.5c0,0,0,0-0.1,0c-3.9,2-8.5,2-12.6,0.2c-1.6-0.7-3.2-1.4-4.7-2.2c-31.5-16.6-63-33.3-94.5-50
	c-3.7-2-8.5-2.7-8.6-7.8c-0.1-5.2,4.8-6.3,8.4-8.3c30.8-16.6,61.8-33,92.6-49.6c7.6-4.1,14.6-5.6,22.9-1
	c32.4,17.7,65,34.8,97.6,52.1C397.6,108.6,403,112,392.8,117.4z"/>
<path class="st20" d="M307.2,456.5c125.7-63.9,207.5-108.9,232.5-123.5c6.8-4,14.5-9.1,17.4-5.1c6.9,9.6-1.1,32-6.6,35.9
	c-4.6,3.2-6.4,3.5-11.4,6.2c-78.6,41.8-157.2,83.5-235.7,125.5c-14,7.5-26.9,7.7-41,0.2C181.2,452.1,106,412,24.4,369.2
	C13.2,363.3,6.9,358,3.8,345.3c-5.2-21.1,1-23.2,16.7-14.9c79.2,41.9,158.6,83.6,237.4,126.3c3.8,2.2,12.5,6.6,24.4,6.6
	C294.5,463.3,303.4,458.7,307.2,456.5z"/>
<g>
	<path class="st0" d="M1479.8,127.6c0.1-0.7,0.1-1.4,0.2-2.1c0,0,0,0,0-0.1h-18.5l-0.1,0.5c-0.5,4.2-3.2,7.2-7.1,8.1
		c-1.5,0.3-3.1,0.5-4.6,0.5c-17.7,0-35.4,0-53.1,0c-1.5,0-3.1-0.2-4.6-0.5c-3.5-0.8-5.8-2.9-6.8-6c-0.4-1.2-0.6-2.6-0.6-4
		c-0.1-2-0.1-4.1,0-6.1V116v-2.3l95.6,0.2v-6.7c0-5.1,0-10.3,0-15.4c0-2.4-0.2-4.5-0.5-6.5c-0.8-5.3-3.2-9.8-7.3-13.3
		c-5.4-4.8-12.1-7.2-19.8-7.3c-8.4,0-16.9-0.1-25.4-0.1c-9.3,0-18.6,0-27.8,0h-5.7c-1.7,0-3.6,0.2-5.6,0.5c-3.4,0.6-6.5,1.7-9.4,3.3
		c-4.3,2.4-7.6,5.6-9.8,9.6c-2,3.6-3,7.5-3,12v14.4c0,6.5,0,13,0,19.5c0,1.3,0.1,2.7,0.3,4.1c1,7.2,4.9,12.9,11.5,16.9
		c4.9,2.9,10.5,4.4,16.6,4.4c17.3,0,34.5,0,51.8,0h5.8c5,0,9.7-1,13.9-3C1474.1,142.4,1478.7,136.2,1479.8,127.6z M1384.6,88.8
		c0.2-4.6,3-7.9,7.6-8.9c1.5-0.3,3.1-0.5,4.7-0.5c13.6,0,27.1,0,40.7,0h11.9c1.6,0,3.8,0.1,5.9,0.8c3.7,1.3,5.8,4,6.1,7.8
		c0.2,2.2,0.1,4.5,0.1,6.7c0,0.9,0,1.9,0,2.8v1.3h-77v-1.7c0-0.8,0-1.6,0-2.5C1384.5,92.8,1384.5,90.8,1384.6,88.8z"/>
	<path class="st0" d="M1885,85.3c-0.8-5.3-3.2-9.8-7.3-13.3c-5.4-4.8-12.1-7.2-19.8-7.3c-8.4,0-16.9-0.1-25.4-0.1
		c-9.3,0-18.6,0-27.8,0h-5.7c-1.7,0-3.6,0.2-5.6,0.5c-3.4,0.6-6.5,1.7-9.4,3.3c-4.3,2.4-7.6,5.6-9.8,9.6c-2,3.6-3,7.5-3,12v14.4
		c0,6.5,0,13,0,19.5c0,1.3,0.1,2.7,0.3,4.1c1,7.2,4.9,12.9,11.5,16.9c4.9,2.9,10.5,4.4,16.6,4.4c17.3,0,34.5,0,51.8,0h5.8
		c5,0,9.7-1,13.9-3c8.3-4,12.9-10.2,14-18.8c0.1-0.7,0.1-1.4,0.2-2.1c0,0,0,0,0-0.1h-18.5l-0.1,0.5c-0.5,4.2-3.2,7.2-7.1,8.1
		c-1.5,0.3-3.1,0.5-4.6,0.5c-17.7,0-35.4,0-53.1,0c-1.5,0-3.1-0.2-4.6-0.5c-3.5-0.8-5.8-2.9-6.8-6c-0.4-1.2-0.6-2.6-0.6-4
		c-0.1-2-0.1-4.1,0-6.1v-1.9v-2.3l95.6,0.2v-6.7c0-5.1,0-10.3,0-15.4C1885.4,89.4,1885.3,87.3,1885,85.3z M1866.9,94.7
		c0,0.9,0,1.9,0,2.8v1.3h-77v-1.7c0-0.8,0-1.6,0-2.5c0-1.9,0-4,0.1-5.9c0.2-4.6,3-7.9,7.6-8.9c1.5-0.3,3.1-0.5,4.7-0.5
		c13.6,0,27.1,0,40.7,0h11.9c1.6,0,3.8,0.1,5.9,0.8c3.7,1.3,5.8,4,6.1,7.8C1866.9,90.3,1866.9,92.5,1866.9,94.7z"/>
	<path class="st0" d="M1196.7,85.3c-0.8-5.3-3.2-9.8-7.3-13.3c-5.4-4.8-12.1-7.2-19.8-7.3c-8.4,0-16.9-0.1-25.4-0.1
		c-9.3,0-18.6,0-27.7,0h-5.7c-1.7,0-3.6,0.2-5.6,0.5c-3.4,0.6-6.5,1.7-9.4,3.3c-4.3,2.4-7.6,5.6-9.8,9.6c-2,3.6-3,7.5-3,12v14.3
		c0,6.6,0,13.1,0,19.7c0,1.3,0.1,2.7,0.3,4.1c1,7.2,4.9,12.9,11.5,16.9c4.9,2.9,10.5,4.4,16.6,4.4c17.3,0,34.5,0,51.8,0h5.8
		c5,0,9.7-1,13.9-3c8.3-4,12.9-10.2,14-18.8c0.1-0.7,0.1-1.4,0.2-2.1c0,0,0,0,0-0.1h-18.5l-0.1,0.5c-0.5,4.2-3.2,7.2-7.1,8.1
		c-1.5,0.3-3.1,0.5-4.6,0.5c-17.7,0-35.4,0-53.1,0c-1.5,0-3.1-0.2-4.6-0.5c-3.5-0.8-5.8-2.9-6.8-6c-0.4-1.2-0.6-2.6-0.6-4
		c-0.1-2-0.1-4.1,0-6.1V116c0-0.3,0-0.5,0.1-0.8l0.2-1.3h95.3v-6.7c0-5.1,0-10.3,0-15.4C1197.1,89.4,1197,87.3,1196.7,85.3z
		 M1178.5,94.8c0,0.9,0,1.9,0,2.8c0,0.3-0.1,0.5-0.2,0.6l-0.2,0.6l-0.7,0.1h-75.7l-0.1-1.1c0-0.2-0.1-0.4-0.1-0.6c0-0.8,0-1.6,0-2.5
		c0-1.9,0-4,0.1-5.9c0.2-4.6,3-7.9,7.6-8.9c1.5-0.3,3.1-0.5,4.7-0.5c13.6,0,27.1,0,40.7,0h11.9c1.6,0,3.8,0.1,5.9,0.8
		c3.7,1.3,5.8,4,6.1,7.8C1178.6,90.4,1178.5,92.6,1178.5,94.8z"/>
	<path class="st0" d="M685.2,87V21.5h-18.7v127.8c2.2,0,3.9,0,5.9,0c3,0,6.5,0,12.7-0.1v-14.4c0.1-12.8,0-9.9,0-22.7L685.2,87
		L685.2,87z"/>
	<path class="st0" d="M1989.9,77.9c-2.2-4.2-5.4-7.4-9.5-9.7s-8.8-3.4-14.4-3.5c-7.5-0.1-14.3-0.1-20.7,0c-4.3,0.1-8.6,1-12.3,2.6
		c-2.5,1.1-4.7,2.8-6.7,4.7l-0.1,0.1v-7.2h-18.7c0,0,0.4,84.7,0.1,84.5h18.5l0.3-57.3c0-1.7,0.1-3.2,0.3-4.5c0.4-3.3,2.2-5.7,5.3-7
		c2.2-0.9,4.4-1.1,6.3-1.1c8.1,0,16.1,0,24.2,0c1.3,0,2.6,0.2,3.9,0.4c4.7,0.7,7.7,4.1,8,9.1l0,0h18.6
		C1992.6,84.5,1991.5,80.9,1989.9,77.9z"/>
	<path class="st0" d="M1302.7,77.9c-2.2-4.2-5.4-7.4-9.5-9.7s-8.8-3.4-14.4-3.5c-7.5-0.1-14.3-0.1-20.7,0c-4.3,0.1-8.6,1-12.3,2.6
		c-2.5,1.1-4.7,2.8-6.7,4.7l-0.1,0.1v-7.2h-18.7c0,0,0.4,84.7,0.1,84.5h18.5l0.3-57.3c0-1.7,0.1-3.2,0.3-4.5c0.4-3.3,2.2-5.7,5.3-7
		c2.2-0.9,4.4-1.1,6.3-1.1c8.1,0,16.1,0,24.2,0c1.3,0,2.6,0.2,3.9,0.4c4.7,0.7,7.7,4.1,8,9.1l0,0h18.6
		C1305.4,84.5,1304.3,80.9,1302.7,77.9z"/>
	<path class="st0" d="M1033.2,149.4c1,0,2-0.1,3-0.2h0.2c5.3-0.6,10.2-2.5,14.3-5.4c3.6-2.6,6.2-5.7,7.9-9.6c1.3-3.1,2-6.4,2-10.2
		c0-10.9,0-21.8,0-32.7v-1.4c0-1.8-0.1-4.1-0.6-6.3c-1.4-5.6-4.5-10.1-9.2-13.4c-5.3-3.8-11.5-5.7-18.4-5.7c-14.9,0-29.7,0-44.6,0
		c-1.8,0-3.6,0.2-5.4,0.5c-4.1,0.7-8,2.2-11.6,4.6c-0.2,0.2-1.5,1-2.5,1.7l0,0v-6.4h-18.6v107.4c2,0,5.5,0,9,0c3.7,0,7.4,0,9.6,0
		v-50.8c0-10,0-20.1,0-30.1v-0.5c0-1,0-2,0.1-3.1c0.5-3.8,2.5-6.4,5.9-7.5c1.6-0.6,3.3-0.9,4.9-0.9c6.5-0.1,12.9,0,19.4,0h6.6h6.8
		c6.4,0,12.8,0,19.2,0c1.5,0,3.2,0.3,4.9,0.9c3.6,1.3,5.9,4.5,5.9,8.5c0,12.1,0,24.2,0,36.3c0,4.7-2.8,8.1-7.3,9.1
		c-1.5,0.3-3,0.5-4.6,0.5c-12.6,0-22.9,0-33.6,0h-9.8l-13.9,14.8c14.4,0,44.3,0,59.1,0L1033.2,149.4z"/>
	<path class="st0" d="M1615.4,149V24.3l-18.6,0.1v98.7c0,1,0,2-0.1,3.1c-0.5,3.8-2.5,6.4-5.9,7.5c-1.6,0.6-3.3,0.9-4.9,0.9H1534
		c-1.5,0-3.2-0.3-4.9-0.9c-3.6-1.3-5.9-4.5-5.9-8.5c0-12.1,0-24.2,0-36.3c0-4.7,2.8-8.1,7.3-9.1c1.5-0.3,3-0.5,4.6-0.5h43.3
		l13.9-14.8c-14.4,0-44.3,0-59.1,0h-1.5c-1,0-2,0.1-3,0.2h-0.2c-5.4,0.6-10.2,2.5-14.3,5.4c-3.6,2.6-6.2,5.8-7.9,9.6
		c-1.3,3.1-2,6.4-2,10.2c0,11.4,0,22.7,0,34.1c0,1.8,0.1,4.1,0.6,6.3c1.4,5.6,4.5,10.1,9.2,13.4c5.3,3.8,11.5,5.7,18.4,5.7
		c14.9,0,29.7,0,44.6,0c1.8,0,3.6-0.2,5.4-0.5c4.1-0.7,8-2.2,11.6-4.6c0.2-0.2,1.2-0.8,2.5-1.5l0,0l0,0l0,0v6.2L1615.4,149
		L1615.4,149z"/>
	<polygon class="st0" points="1324.2,22.5 1324.2,149.4 1342.8,149.4 1342.8,22.5 	"/>
	<path class="st0" d="M774.1,22.5v57.8c-15.7,0-67.6,0-76.6,0l-12.2,14.8c14.6,0,66.8,0,88.8,0v54.3h18.7v-127L774.1,22.5
		L774.1,22.5z"/>
	<path class="st0" d="M1750.2,65c0-0.2,0-0.4,0-0.6c-2.4,0-4.8,0-7.2,0c-3.8,0-7.5,0-11.3,0l-0.1,6.6c0,0-7.5-6.8-20.1-6.8
		c-7,0-13.9,0-20.9,0c-7.6,0-15.2,0-22.8,0c-2.2,0-4,0.1-5.6,0.4c-4.4,0.7-8.3,2.2-11.7,4.3c-4.9,3.1-8.2,7.2-9.9,12.1
		c-0.9,2.6-1.4,5.5-1.4,8.8c0,7.5,0,14.9,0,22.4v11.2c0,2,0.1,3.8,0.4,5.4c0.8,4.4,2.6,8.3,5.6,11.4c5.5,5.9,12.5,8.9,20.7,9
		c13.7,0.2,29.7,0.1,45.2,0.1h1.8l13.9-14.8c-16.9,0-41.3,0-57.3,0c-1.5,0-3.1-0.2-4.9-0.7c-3.9-1.1-6.4-4.1-6.7-8.4
		c0-0.5,0-0.9,0-1.4v-12.2V90c0-1.5,0.1-3.1,0.7-4.6c1-2.7,2.9-4.5,5.5-5.3c1.7-0.6,3.4-0.8,4.9-0.9c6.5-0.1,12.9,0,19.4,0h6.6h6.5
		c6.5,0,13,0,19.5,0c1.5,0,3.1,0.3,4.7,0.9c2.8,0.9,4.7,3,5.5,5.9c0.3,1.2,0.5,2.4,0.5,3.5l0.1,68.7l0,0v0.3c0,1,0,2,0,3
		c0,0.8-0.2,1.8-0.6,2.7c-1,2.2-2.7,3.8-5.2,4.7c-1.7,0.6-3.6,1-5.6,0.9h-22.2c-10.2,0-20.6,0-29.3,0l-12.2,14.8
		c13.4,0.1,36.9,0,54.2,0h12.2c1.3,0,2.6-0.1,3.8-0.3c4.2-0.5,8.3-1.8,12-4.1c4.5-2.8,7.7-6.3,9.6-10.8c1.3-3,1.9-6.3,1.9-10.4
		c0-21.3,0-42.6,0-63.8L1750.2,65z"/>
	<path class="st0" d="M926,65.1c0-0.1,0-0.3,0-0.4h-18.6v11c0,15.9,0,31.8,0,47.7c0,1.3-0.1,2.6-0.4,3.9c-0.6,2.8-2.3,4.9-4.9,6.1
		c-1.9,0.9-4,1.3-6.7,1.3h-11.7c-12.7,0-25.3,0-38,0c-1.6,0-3.1-0.2-4.6-0.5c-3.5-0.8-5.9-2.9-7-6.1c-0.5-1.5-0.5-3-0.5-4.4V65.5
		c0-0.2,0-0.4,0-0.6h-18.5V78c0,15.1,0,30.3,0,45.4c0,1.7,0.1,3.4,0.3,5.2c0.6,4.4,2.4,8.4,5.4,11.7c5.5,6,12.5,9.1,20.9,9.2
		l48.5,0.1c5.7,0,10.8-1.4,14.9-4.1c0.2-0.2,1.4-0.9,2.4-2.1l0,0v17.8c0,2.8-1.4,5.1-3.9,6.8c-2,1.3-4.4,1.9-7.3,1.9l0,0h-17.5
		c-11.8,0-24.7,0-34.3,0l-12.3,14.6c16.5,0,51.5,0,66.3,0c1.1,0,2.4-0.1,3.9-0.3c5.1-0.6,9.8-2.4,13.9-5.4
		c6.4-4.7,9.6-10.9,9.7-18.4c0.1-23.5,0.1-47.4,0-70.5L926,65.1L926,65.1z"/>
</g>
<g>
	<path class="st20" d="M666.5,497.2V241.7h154.4v27.7H697.1v85.8H811V383H697.1v114.2H666.5z"/>
	<path class="st20" d="M827.4,497.2l78.8-255.5h54l78.8,255.5h-31.8l-19.7-64.6H878.9l-19.7,64.6H827.4z M886.6,404.9h93.1
		l-43.8-144.5h-5.1L886.6,404.9z"/>
	<path class="st20" d="M1065.4,497.2v-27.4h35.8V269.1h-35.8v-27.4h128.1c14.8,0,28,2.7,39.6,8c11.6,5.4,20.6,12.8,27,22.4
		c6.4,9.6,9.7,20.9,9.7,33.8v2.9c0,11.9-2.3,21.7-6.9,29.4c-4.6,7.7-10.1,13.6-16.4,17.9c-6.3,4.3-12.5,7.4-18.6,9.3v5.1
		c6.1,1.5,12.4,4.3,19,8.6c6.6,4.3,12.1,10.3,16.6,18.1c4.5,7.8,6.8,17.6,6.8,29.6v3.6c0,13.9-3.3,25.9-10,36
		c-6.7,10.1-15.8,17.8-27.4,23c-11.6,5.2-24.8,7.8-39.6,7.8H1065.4z M1131.8,354.5h59.1c14.6,0,26.3-3.7,35-11.1
		c8.8-7.4,13.1-17.2,13.1-29.4v-3.7c0-12.4-4.3-22.3-13-29.7c-8.6-7.4-20.4-11.1-35.2-11.1h-59.1V354.5z M1131.8,469.5h58
		c16.1,0,28.3-3.8,36.9-11.3c8.5-7.5,12.8-17.8,12.8-30.7v-3.3c0-12.9-4.3-23.1-12.8-30.7c-8.5-7.5-20.8-11.3-36.9-11.3h-58V469.5z"
		/>
	<path class="st20" d="M1318.7,497.2V241.7H1422c15.8,0,29.7,2.7,41.8,8.2c12,5.5,21.5,13.3,28.3,23.4c6.8,10.1,10.2,22.2,10.2,36.3
		v4c0,16.8-4,30.1-12,39.8c-8,9.7-17.5,16.3-28.5,19.7v5.1c8.8,0.2,16,3.1,21.7,8.6c5.7,5.5,8.6,13.7,8.6,24.6v85.8h-30.3v-82.1
		c0-7.3-2-12.9-6-16.8c-4-3.9-10-5.8-18.1-5.8h-88.3v104.8H1318.7z M1349.4,364.7h69.7c16.8,0,29.7-4.1,38.9-12.2
		c9.1-8.1,13.7-19.5,13.7-34.1v-2.6c0-14.6-4.5-26-13.5-34.1c-9-8.2-22-12.2-39.1-12.2h-69.7V364.7z"/>
	<path class="st20" d="M1549,497.2V241.7h30.7v255.5H1549z"/>
	<path class="st20" d="M1730.4,502.3c-30.4,0-54.6-8.8-72.6-26.5c-18-17.6-27-43.4-27-77.2v-58.4c0-33.8,9-59.6,27-77.2
		c18-17.6,42.2-26.5,72.6-26.5c30.2,0,53.3,8.4,69.5,25.2c16.2,16.8,24.3,39.8,24.3,69v1.8h-30.3v-2.9c0-19.2-5.2-35-15.5-47.3
		c-10.3-12.3-26.3-18.4-48-18.4c-21.7,0-38.6,6.6-50.7,19.9c-12.2,13.3-18.2,31.8-18.2,55.7v59.9c0,23.8,6.1,42.4,18.2,55.7
		c12.2,13.3,29.1,19.9,50.7,19.9c21.7,0,37.7-6.1,48-18.4c10.3-12.3,15.5-28,15.5-47.3v-5.8h30.3v4.7c0,29.2-8.1,52.2-24.3,69
		C1783.8,493.9,1760.6,502.3,1730.4,502.3z"/>
</g>
</svg>
