<?xml version="1.0" encoding="UTF-8" standalone="no"?>
<!DOCTYPE svg PUBLIC "-//W3C//DTD SVG 1.1//EN" "http://www.w3.org/Graphics/SVG/1.1/DTD/svg11.dtd">
<svg width="100%" height="100%" viewBox="0 0 624 562" version="1.1" xmlns="http://www.w3.org/2000/svg" xmlns:xlink="http://www.w3.org/1999/xlink" xml:space="preserve" xmlns:serif="http://www.serif.com/" style="fill-rule:evenodd;clip-rule:evenodd;stroke-linejoin:round;stroke-miterlimit:2;">
    <rect style="fill:white;" width="100%" height="100%" rx="100" ry="100"/>
    <g transform="matrix(1,0,0,1,30.0022,29.98108)">
        <path d="M17,159C7.5,153.4 -3.3,129.7 7.3,122.2C11.5,119.7 13.9,121 16.8,122.4C45.8,137.3 74.5,152.8 103.2,168.1C155.7,196 208.5,223.6 260.7,252.1C276.8,260.9 290.6,260.4 306.6,251.7C384.3,209.7 462.4,168.5 540.5,127.3C546.5,124.1 549.4,121.9 556.4,123.9C562.9,130.9 557.9,155.2 551.3,159.1C542.2,164.6 534.7,166.8 525.3,171.8C509.3,180.4 493.3,189 477.3,197.7C448.2,212.7 452.1,210.8 440.5,217.4C419.5,229.1 401,238.4 378.9,251.5C365.4,259.4 360.8,260.3 346.4,269.4C334.8,276.3 334.9,290.3 337.4,302.1C323.4,309.8 309.3,317.6 295.3,325.3C287.7,329.5 280.3,330.1 272.4,325.7C257.9,317.5 243.1,309.7 228.5,301.7C227.9,289.5 230.5,273 216.6,267.3" style="fill:rgb(11,60,132);fill-rule:nonzero;"/>
        <path d="M350.7,372.4C337.3,378.5 336,394 337.1,407.2C336.5,407.5 336,407.7 335.4,408C282.1,437 282.1,437 228.8,406.9C228.3,395.6 229,379.8 215.7,372.7C205.9,366.7 191.4,359.3 181.8,353.2C161.2,340.7 152,334.6 130.5,322.9C126.3,320.2 117.6,316 112.3,313.2C102.6,308.1 102.6,308.1 92.6,302.6C68.3,289.7 43.3,277.3 18.9,264.7C7.3,258.5 -0.1,238 5.7,226.3C8.4,220.6 14.3,225.5 17.6,227.3C62.6,250.8 107.4,274.8 152.2,298.6C189.3,318.3 226.5,337.8 263.4,357.8C277.4,365.4 290.4,364.9 304.3,357.4C385,314.2 465.9,271.6 546.5,228.2C558,222 560.8,223 561.3,236.5C561.9,251.6 557.6,260.6 543.2,267.2C520.5,277.7 499,290.7 477,302.6" style="fill:rgb(11,60,132);fill-rule:nonzero;"/>
        <path d="M485.5,103.7C423,70.5 360.4,37.6 298.1,4.1C286.8,-2 277.5,-0.9 266.6,5C205.9,37.7 145,69.8 84.2,102.2C79.9,104.5 76.1,105.5 75.4,110.9C74.5,118 79.3,119.5 83.7,121.9C145.5,155.1 207.6,187 269.5,220C273.9,222.4 278.4,224.6 286.2,224.1C288,223.4 292.2,222.2 296,220.2C359.7,186.4 423.2,152.4 487,119C501.6,111.4 493.4,107.9 485.5,103.7ZM392.8,117.4C358.6,135.6 324.3,153.8 290,171.9L289.9,171.9C286,173.9 281.4,173.9 277.3,172.1C275.7,171.4 274.1,170.7 272.6,169.9C241.1,153.3 209.6,136.6 178.1,119.9C174.4,117.9 169.6,117.2 169.5,112.1C169.4,106.9 174.3,105.8 177.9,103.8C208.7,87.2 239.7,70.8 270.5,54.2C278.1,50.1 285.1,48.6 293.4,53.2C325.8,70.9 358.4,88 391,105.3C397.6,108.6 403,112 392.8,117.4Z" style="fill:rgb(11,60,132);fill-rule:nonzero;"/>
        <path d="M307.2,456.5C432.9,392.6 514.7,347.6 539.7,333C546.5,329 554.2,323.9 557.1,327.9C564,337.5 556,359.9 550.5,363.8C545.9,367 544.1,367.3 539.1,370C460.5,411.8 381.9,453.5 303.4,495.5C289.4,503 276.5,503.2 262.4,495.7C181.2,452.1 106,412 24.4,369.2C13.2,363.3 6.9,358 3.8,345.3C-1.4,324.2 4.8,322.1 20.5,330.4C99.7,372.3 179.1,414 257.9,456.7C261.7,458.9 270.4,463.3 282.3,463.3C294.5,463.3 303.4,458.7 307.2,456.5Z" style="fill:rgb(11,60,132);fill-rule:nonzero;"/>
    </g>
</svg>
